{"title":"Falling.Skies.S05E10.HDTV.480p.x264.AAC-VYTO [P2PDL]","uid":12316803,"size":174166451,"categoryP":"video","categoryS":"tv_shows","magnet":"?xt=urn:btih:9cd90086e2058e33ff41e1eb839f757c56611f08&amp;dn=Falling.Skies.S05E10.HDTV.480p.x264.AAC-VYTO+%5BP2PDL%5D&amp;tr=udp%3A%2F%2Ftracker.openbittorrent.com%3A80&amp;tr=udp%3A%2F%2Fopen.demonii.com%3A1337&amp;tr=udp%3A%2F%2Ftracker.coppersurfer.tk%3A6969&amp;tr=udp%3A%2F%2Fexodus.desync.com%3A6969","seeders":7,"leechers":0,"uploader":"ValidusVyto","files":6,"time":1441008545,"description":"____    ____ ____    ____ .___________.  ______   \n     /   /      /   / |           | /  __    \n    /   /      /   /  `---|  |----`|  |  |  | \n        /     _    _/       |  |     |  |  |  | \n       /        |  |         |  |     |  `--'  | \n    __/         |__|         |__|      ______/  \n                                                  \nPresenting Small Encodes with quality for years!\n                                                                                                   \n                                                                                                   \n\nFalling.Skies.S05E10.HDTV.480p.x264.AAC-VYTO\n\n\nGeneral\nFormat                         : MPEG-4\nFile size                      : 161 MiB\nDuration                       : 47mn 37s\nOverall bit rate               : 472 Kbps\n\nVideo\nFormat                         : AVC\nBit rate                       : 437 Kbps\nWidth                          : 720 pixels\nHeight                         : 400 pixels\nDisplay aspect ratio           : 16:9\nFrame rate mode                : Constant\nFrame rate                     : 23.976 fps\nBit depth                      : 8 bits\nStream size                    : 149 MiB (93%)\nWriting library                : x264 core 148 r2597\n\nAudio\nFormat                         : AAC\nBit rate mode                  : Variable\nBit rate                       : 32.0 Kbps\nChannel(s)                     : 2 channels\nChannel positions              : Front: L R \nSampling rate                  : 48.0 KHz \nStream size                    : 10.9 MiB (7%)\n\n\nScreenshots:\n &lt;a href=&quot;\nhttp://ititli.com/Kg&quot; rel=&quot;nofollow&quot; target=&quot;_NEW&quot;&gt;\nhttp://ititli.com/Kg&lt;/a&gt; &lt;a href=&quot;\nhttp://ititli.com/Kn&quot; rel=&quot;nofollow&quot; target=&quot;_NEW&quot;&gt;\nhttp://ititli.com/Kn&lt;/a&gt; &lt;a href=&quot;\nhttp://ititli.com/Kw&quot; rel=&quot;nofollow&quot; target=&quot;_NEW&quot;&gt;\nhttp://ititli.com/Kw&lt;/a&gt; &lt;a href=&quot;\nhttp://ititli.com/K2&quot; rel=&quot;nofollow&quot; target=&quot;_NEW&quot;&gt;\nhttp://ititli.com/K2&lt;/a&gt; &lt;a href=&quot;\nhttp://ititli.com/K6&quot; rel=&quot;nofollow&quot; target=&quot;_NEW&quot;&gt;\nhttp://ititli.com/K6&lt;/a&gt; &lt;a href=&quot;\nhttp://ititli.com/K8&quot; rel=&quot;nofollow&quot; target=&quot;_NEW&quot;&gt;\nhttp://ititli.com/K8&lt;/a&gt; &lt;a href=&quot;\nhttp://ititli.com/Ke&quot; rel=&quot;nofollow&quot; target=&quot;_NEW&quot;&gt;\nhttp://ititli.com/Ke&lt;/a&gt; &lt;a href=&quot;\nhttp://ititli.com/Kj&quot; rel=&quot;nofollow&quot; target=&quot;_NEW&quot;&gt;\nhttp://ititli.com/Kj&lt;/a&gt; &lt;a href=&quot;\nhttp://ititli.com/Kk&quot; rel=&quot;nofollow&quot; target=&quot;_NEW&quot;&gt;\nhttp://ititli.com/Kk&lt;/a&gt; &lt;a href=&quot;\nhttp://ititli.com/Ko&quot; rel=&quot;nofollow&quot; target=&quot;_NEW&quot;&gt;\nhttp://ititli.com/Ko&lt;/a&gt; &lt;a href=&quot;\nhttp://ititli.com/KG&quot; rel=&quot;nofollow&quot; target=&quot;_NEW&quot;&gt;\nhttp://ititli.com/KG&lt;/a&gt; &lt;a href=&quot;\nhttp://ititli.com/KH&quot; rel=&quot;nofollow&quot; target=&quot;_NEW&quot;&gt;\nhttp://ititli.com/KH&lt;/a&gt;\n\n----------------------------------------------------------------------------------------------------\n\n\nEncoder Notes: Looking For Early Access To Anything You Can Provide DVDScr, R5, DVDR, BluRay, Direct\nAudio, Music Releases and Seedboxes. If You Got anything to offer please contact us.\n\nSupport us by donating BC - 1FgwdzPsd1y25Gea8wP1qni35uGCtmkRCD","torrent":{"xt":"urn:btih:9cd90086e2058e33ff41e1eb839f757c56611f08","amp;dn":"Falling.Skies.S05E10.HDTV.480p.x264.AAC-VYTO+%5BP2PDL%5D","amp;tr":["udp%3A%2F%2Ftracker.openbittorrent.com%3A80","udp%3A%2F%2Fopen.demonii.com%3A1337","udp%3A%2F%2Ftracker.coppersurfer.tk%3A6969","udp%3A%2F%2Fexodus.desync.com%3A6969"],"infoHash":"9cd90086e2058e33ff41e1eb839f757c56611f08","infoHashBuffer":{"type":"Buffer","data":[156,217,0,134,226,5,142,51,255,65,225,235,131,159,117,124,86,97,31,8]},"announce":[],"urlList":[]}}